<svg width="68" height="40" viewBox="0 0 68 40" fill="none" xmlns="http://www.w3.org/2000/svg">
<rect y="20" width="20" height="20" fill="#FCC231"/>
<path d="M20 0C17.3736 -3.132e-08 14.7728 0.517315 12.3463 1.52241C9.91982 2.5275 7.71503 4.00069 5.85786 5.85787C4.00069 7.71504 2.5275 9.91982 1.52241 12.3463C0.517315 14.7728 -3.96581e-07 17.3736 0 20L8 20C8 18.4241 8.31039 16.8637 8.91345 15.4078C9.5165 13.9519 10.4004 12.629 11.5147 11.5147C12.629 10.4004 13.9519 9.5165 15.4078 8.91345C16.8637 8.31039 18.4241 8 20 8V0Z" fill="#FCC231"/>
<rect x="28" y="20" width="20" height="20" fill="#43BA7F"/>
<path d="M48 0C45.3736 -3.132e-08 42.7728 0.517315 40.3463 1.52241C37.9198 2.5275 35.715 4.00069 33.8579 5.85787C32.0007 7.71504 30.5275 9.91982 29.5224 12.3463C28.5173 14.7728 28 17.3736 28 20L36 20C36 18.4241 36.3104 16.8637 36.9134 15.4078C37.5165 13.9519 38.4004 12.629 39.5147 11.5147C40.629 10.4004 41.9519 9.5165 43.4078 8.91345C44.8637 8.31039 46.4241 8 48 8V0Z" fill="#43BA7F"/>
</svg>
