<svg width="48" height="32" viewBox="0 0 48 32" fill="none" xmlns="http://www.w3.org/2000/svg">
<g id="Group 197">
<path id="Ellipse 13" d="M16 32C11.7565 32 7.68687 30.3143 4.68629 27.3137C1.68571 24.3131 -8.8487e-07 20.2435 -6.99382e-07 16C-5.13895e-07 11.7565 1.68571 7.68687 4.68629 4.68629C7.68687 1.68571 11.7565 -2.44125e-07 16 -6.99382e-07L16 16L16 32Z" fill="#C282D1"/>
<path id="Ellipse 14" d="M32 32C27.7565 32 23.6869 30.3143 20.6863 27.3137C17.6857 24.3131 16 20.2435 16 16C16 11.7565 17.6857 7.68687 20.6863 4.68629C23.6869 1.68571 27.7565 -2.44125e-07 32 -6.99382e-07L32 16L32 32Z" fill="#FF8145"/>
</g>
</svg>
