<svg width="32" height="32" viewBox="0 0 32 32" fill="none" xmlns="http://www.w3.org/2000/svg">
<g id="Group 199">
<circle id="Ellipse 17" cx="8" cy="8" r="8" transform="rotate(90 8 8)" fill="#FF8145"/>
<circle id="Ellipse 18" cx="24" cy="8" r="8" transform="rotate(90 24 8)" fill="#C282D1"/>
<path id="Vector 8" d="M16 29.5858L16 17C16 16.4477 15.5523 16 15 16L2.41421 16C1.52331 16 1.07714 17.0771 1.7071 17.7071L14.2929 30.2929C14.9229 30.9229 16 30.4767 16 29.5858Z" fill="#FCC231"/>
<path id="Vector 9" d="M32 29.5858L32 17C32 16.4477 31.5523 16 31 16L18.4142 16C17.5233 16 17.0771 17.0771 17.7071 17.7071L30.2929 30.2929C30.9229 30.9229 32 30.4767 32 29.5858Z" fill="#43BA7F"/>
</g>
</svg>
