<svg width="83" height="36" viewBox="0 0 83 36" fill="none" xmlns="http://www.w3.org/2000/svg">
<rect x="0.5" y="0.5" width="82" height="35" rx="7.5" fill="white" stroke="#E6E8EA"/>
<path d="M17.296 23V15H18.672V16.232C19.216 15.304 20.064 14.84 21.216 14.84C22.1227 14.84 22.8533 15.1333 23.408 15.72C23.9627 16.3067 24.24 17.0907 24.24 18.072V23H22.88V18.28C22.88 17.608 22.7093 17.08 22.368 16.696C22.0267 16.3013 21.568 16.104 20.992 16.104C20.3307 16.104 19.776 16.3653 19.328 16.888C18.8907 17.4107 18.672 18.1253 18.672 19.032V23H17.296ZM30.1259 23.16C28.9632 23.16 27.9979 22.7653 27.2299 21.976C26.4725 21.1867 26.0939 20.1947 26.0939 19C26.0939 17.7947 26.4619 16.8027 27.1979 16.024C27.9445 15.2347 28.9312 14.84 30.1579 14.84C31.3952 14.84 32.3659 15.2773 33.0699 16.152C33.7739 17.0267 34.0832 18.0987 33.9979 19.368H27.4859C27.5072 20.0933 27.7739 20.7013 28.2859 21.192C28.7979 21.672 29.4165 21.912 30.1419 21.912C31.2299 21.912 32.0032 21.464 32.4619 20.568H33.8699C33.6672 21.3147 33.2352 21.9333 32.5739 22.424C31.9125 22.9147 31.0965 23.16 30.1259 23.16ZM31.6939 16.632C31.2565 16.248 30.7285 16.056 30.1099 16.056C29.4912 16.056 28.9365 16.2427 28.4459 16.616C27.9659 16.9893 27.6672 17.544 27.5499 18.28H32.5419C32.4139 17.5547 32.1312 17.0053 31.6939 16.632ZM41.0626 23L38.6306 19.976L36.1986 23H34.4866L37.7666 18.952L34.7586 15H36.4226L38.6306 17.896L40.8226 15H42.5026L39.4786 18.952L42.7586 23H41.0626ZM47.275 23.08C46.539 23.08 45.947 22.872 45.499 22.456C45.051 22.04 44.827 21.432 44.827 20.632V16.264H43.131V15H44.827V12.776H46.203V15H48.507V16.264H46.203V20.456C46.203 20.9573 46.3097 21.3093 46.523 21.512C46.7363 21.7147 47.0723 21.816 47.531 21.816C47.9363 21.816 48.2617 21.7627 48.507 21.656V22.888C48.123 23.016 47.7123 23.08 47.275 23.08Z" fill="#343434"/>
<path d="M61.6666 22.375L66.3333 18L61.6666 13.625" stroke="#343434" stroke-linecap="round" stroke-linejoin="round"/>
</svg>
