<svg width="83" height="36" viewBox="0 0 83 36" fill="none" xmlns="http://www.w3.org/2000/svg">
<rect x="0.5" y="0.5" width="82" height="35" rx="7.5" fill="white" stroke="#E6E8EA"/>
<path d="M36.1408 26.344H34.7648V15H36.1408V16.232C36.4181 15.8267 36.8074 15.496 37.3088 15.24C37.8208 14.9733 38.3701 14.84 38.9568 14.84C40.0661 14.84 40.9941 15.2453 41.7408 16.056C42.4981 16.8667 42.8767 17.848 42.8767 19C42.8767 20.152 42.4981 21.1333 41.7408 21.944C40.9941 22.7547 40.0661 23.16 38.9568 23.16C38.3701 23.16 37.8208 23.032 37.3088 22.776C36.8074 22.5093 36.4181 22.1733 36.1408 21.768V26.344ZM36.7968 21.064C37.3088 21.6187 37.9594 21.896 38.7488 21.896C39.5381 21.896 40.1888 21.6187 40.7008 21.064C41.2128 20.5093 41.4688 19.8213 41.4688 19C41.4688 18.1787 41.2128 17.4907 40.7008 16.936C40.1888 16.3813 39.5381 16.104 38.7488 16.104C37.9594 16.104 37.3088 16.3813 36.7968 16.936C36.2848 17.4907 36.0288 18.1787 36.0288 19C36.0288 19.8213 36.2848 20.5093 36.7968 21.064ZM44.8585 23V15H46.2345V16.552C46.3838 16.0613 46.6718 15.6667 47.0985 15.368C47.5358 15.0693 47.9945 14.92 48.4745 14.92C48.7092 14.92 48.9172 14.9413 49.0985 14.984V16.408C48.9065 16.3227 48.6558 16.28 48.3465 16.28C47.7918 16.28 47.3012 16.52 46.8745 17C46.4478 17.48 46.2345 18.1573 46.2345 19.032V23H44.8585ZM53.8446 23.16C52.682 23.16 51.7166 22.7653 50.9486 21.976C50.1913 21.1867 49.8126 20.1947 49.8126 19C49.8126 17.7947 50.1806 16.8027 50.9166 16.024C51.6633 15.2347 52.65 14.84 53.8766 14.84C55.114 14.84 56.0846 15.2773 56.7886 16.152C57.4926 17.0267 57.802 18.0987 57.7166 19.368H51.2046C51.226 20.0933 51.4926 20.7013 52.0046 21.192C52.5166 21.672 53.1353 21.912 53.8606 21.912C54.9486 21.912 55.722 21.464 56.1806 20.568H57.5886C57.386 21.3147 56.954 21.9333 56.2926 22.424C55.6313 22.9147 54.8153 23.16 53.8446 23.16ZM55.4126 16.632C54.9753 16.248 54.4473 16.056 53.8286 16.056C53.21 16.056 52.6553 16.2427 52.1646 16.616C51.6846 16.9893 51.386 17.544 51.2686 18.28H56.2606C56.1326 17.5547 55.85 17.0053 55.4126 16.632ZM62.0576 23L58.3616 15H59.8976L62.6336 21.064L65.3696 15H66.9056L63.2096 23H62.0576Z" fill="#343434"/>
<path d="M21.3333 13.625L16.6666 18L21.3333 22.375" stroke="#343434" stroke-linecap="round" stroke-linejoin="round"/>
</svg>
